<?xml version="1.0" encoding="UTF-8" standalone="no"?>
<!-- Created with Inkscape (http://www.inkscape.org/) -->

<svg
   xmlns:dc="http://purl.org/dc/elements/1.1/"
   xmlns:cc="http://creativecommons.org/ns#"
   xmlns:rdf="http://www.w3.org/1999/02/22-rdf-syntax-ns#"
   xmlns:svg="http://www.w3.org/2000/svg"
   xmlns="http://www.w3.org/2000/svg"
   xmlns:sodipodi="http://sodipodi.sourceforge.net/DTD/sodipodi-0.dtd"
   xmlns:inkscape="http://www.inkscape.org/namespaces/inkscape"
   width="161.00113"
   height="224.64073"
   id="svg2"
   version="1.1"
   inkscape:version="0.48.5 r10040"
   sodipodi:docname="Nouveau document 1">
  <defs
     id="defs4" />
  <sodipodi:namedview
     id="base"
     pagecolor="#ffffff"
     bordercolor="#666666"
     borderopacity="1.0"
     inkscape:pageopacity="0.0"
     inkscape:pageshadow="2"
     inkscape:zoom="1.979899"
     inkscape:cx="27.339466"
     inkscape:cy="101.91212"
     inkscape:document-units="px"
     inkscape:current-layer="layer1"
     showgrid="false"
     inkscape:snap-object-midpoints="true"
     inkscape:object-nodes="false"
     fit-margin-top="0"
     fit-margin-left="0"
     fit-margin-right="0"
     fit-margin-bottom="0"
     inkscape:window-width="1366"
     inkscape:window-height="745"
     inkscape:window-x="-8"
     inkscape:window-y="-8"
     inkscape:window-maximized="1" />
  <metadata
     id="metadata7">
    <rdf:RDF>
      <cc:Work
         rdf:about="">
        <dc:format>image/svg+xml</dc:format>
        <dc:type
           rdf:resource="http://purl.org/dc/dcmitype/StillImage" />
        <dc:title></dc:title>
      </cc:Work>
    </rdf:RDF>
  </metadata>
  <g
     inkscape:label="Calque 1"
     inkscape:groupmode="layer"
     id="layer1"
     transform="translate(-188.20001,-647.60267)">
    <path
       sodipodi:type="arc"
       style="fill:#000000;fill-opacity:1;stroke:#ff0000;stroke-width:0;stroke-miterlimit:4;stroke-opacity:1;stroke-dasharray:none"
       id="path2989"
       sodipodi:cx="207.08127"
       sodipodi:cy="765.47888"
       sodipodi:rx="13.131983"
       sodipodi:ry="13.131983"
       d="m 220.21325,765.47888 c 0,7.2526 -5.87939,13.13198 -13.13198,13.13198 -7.2526,0 -13.13198,-5.87938 -13.13198,-13.13198 0,-7.25259 5.87938,-13.13198 13.13198,-13.13198 7.25259,0 13.13198,5.87939 13.13198,13.13198 z"
       transform="matrix(0.36088424,0,0,0.36088424,269.72965,376.09253)" />
    <path
       style="fill:none;stroke:#000000;stroke-width:2;stroke-linecap:butt;stroke-linejoin:miter;stroke-miterlimit:4;stroke-opacity:1;stroke-dasharray:none"
       d="M 344.46202,652.34179 192.93914,825.07786"
       id="path3791"
       inkscape:connector-curvature="0"
       sodipodi:nodetypes="cc" />
    <path
       style="fill:none;stroke:#000000;stroke-width:2;stroke-linecap:butt;stroke-linejoin:miter;stroke-miterlimit:4;stroke-opacity:1;stroke-dasharray:none"
       d="M 344.46202,652.34179 320.72343,867.50427"
       id="path3809"
       inkscape:connector-curvature="0"
       sodipodi:nodetypes="cc" />
    <path
       style="fill:none;stroke:#000000;stroke-width:2;stroke-linecap:butt;stroke-linejoin:miter;stroke-miterlimit:4;stroke-opacity:1;stroke-dasharray:none"
       d="m 192.93914,825.07786 43.43656,3.03046 84.34773,39.39595"
       id="path3811"
       inkscape:connector-curvature="0"
       sodipodi:nodetypes="ccc" />
    <path
       style="fill:none;stroke:#000000;stroke-width:2;stroke-linecap:butt;stroke-linejoin:miter;stroke-miterlimit:4;stroke-opacity:1;stroke-dasharray:none"
       d="M 344.46202,652.34179 236.3757,828.10832"
       id="path3813"
       inkscape:connector-curvature="0" />
    <path
       sodipodi:type="arc"
       style="fill:#000000;fill-opacity:1;stroke:#ff0000;stroke-width:0;stroke-miterlimit:4;stroke-opacity:1;stroke-dasharray:none"
       id="path2989-9"
       sodipodi:cx="207.08127"
       sodipodi:cy="765.47888"
       sodipodi:rx="13.131983"
       sodipodi:ry="13.131983"
       d="m 220.21325,765.47888 c 0,7.2526 -5.87939,13.13198 -13.13198,13.13198 -7.2526,0 -13.13198,-5.87938 -13.13198,-13.13198 0,-7.25259 5.87938,-13.13198 13.13198,-13.13198 7.25259,0 13.13198,5.87939 13.13198,13.13198 z"
       transform="matrix(0.36088424,0,0,0.36088424,118.20677,548.8286)" />
    <path
       sodipodi:type="arc"
       style="fill:#000000;fill-opacity:1;stroke:#ff0000;stroke-width:0;stroke-miterlimit:4;stroke-opacity:1;stroke-dasharray:none"
       id="path2989-48"
       sodipodi:cx="207.08127"
       sodipodi:cy="765.47888"
       sodipodi:rx="13.131983"
       sodipodi:ry="13.131983"
       d="m 220.21325,765.47888 c 0,7.2526 -5.87939,13.13198 -13.13198,13.13198 -7.2526,0 -13.13198,-5.87938 -13.13198,-13.13198 0,-7.25259 5.87938,-13.13198 13.13198,-13.13198 7.25259,0 13.13198,5.87939 13.13198,13.13198 z"
       transform="matrix(0.36088424,0,0,0.36088424,161.64333,551.85906)" />
    <path
       sodipodi:type="arc"
       style="fill:#000000;fill-opacity:1;stroke:#ff0000;stroke-width:0;stroke-miterlimit:4;stroke-opacity:1;stroke-dasharray:none"
       id="path2989-8"
       sodipodi:cx="207.08127"
       sodipodi:cy="765.47888"
       sodipodi:rx="13.131983"
       sodipodi:ry="13.131983"
       d="m 220.21325,765.47888 c 0,7.2526 -5.87939,13.13198 -13.13198,13.13198 -7.2526,0 -13.13198,-5.87938 -13.13198,-13.13198 0,-7.25259 5.87938,-13.13198 13.13198,-13.13198 7.25259,0 13.13198,5.87939 13.13198,13.13198 z"
       transform="matrix(0.36088424,0,0,0.36088424,245.99106,591.25501)" />
    <path
       style="fill:none;stroke:#0000ff;stroke-width:1px;stroke-linecap:butt;stroke-linejoin:miter;stroke-opacity:1"
       d="m 192.93914,825.07786 127.78429,42.42641"
       id="path3858"
       inkscape:connector-curvature="0"
       sodipodi:nodetypes="cc" />
  </g>
</svg>
