<?xml version="1.0" encoding="UTF-8" standalone="no"?>
<svg
   xmlns:dc="http://purl.org/dc/elements/1.1/"
   xmlns:cc="http://creativecommons.org/ns#"
   xmlns:rdf="http://www.w3.org/1999/02/22-rdf-syntax-ns#"
   xmlns:svg="http://www.w3.org/2000/svg"
   xmlns="http://www.w3.org/2000/svg"
   xmlns:sodipodi="http://sodipodi.sourceforge.net/DTD/sodipodi-0.dtd"
   xmlns:inkscape="http://www.inkscape.org/namespaces/inkscape"
   height="225"
   version="1.1"
   width="209"
   id="svg2"
   inkscape:version="0.48.5 r10040"
   sodipodi:docname="miniClasses.svg">
  <metadata
     id="metadata84">
    <rdf:RDF>
      <cc:Work
         rdf:about="">
        <dc:format>image/svg+xml</dc:format>
        <dc:type
           rdf:resource="http://purl.org/dc/dcmitype/StillImage" />
      </cc:Work>
    </rdf:RDF>
  </metadata>
  <defs
     id="defs82" />
  <sodipodi:namedview
     pagecolor="#ffffff"
     bordercolor="#666666"
     borderopacity="1"
     objecttolerance="10"
     gridtolerance="10"
     guidetolerance="10"
     inkscape:pageopacity="0"
     inkscape:pageshadow="2"
     inkscape:window-width="1366"
     inkscape:window-height="721"
     id="namedview80"
     showgrid="false"
     fit-margin-top="0"
     fit-margin-left="0"
     fit-margin-right="0"
     fit-margin-bottom="0"
     inkscape:zoom="3.7460317"
     inkscape:cx="98.177966"
     inkscape:cy="101.82203"
     inkscape:window-x="-2"
     inkscape:window-y="-3"
     inkscape:window-maximized="1"
     inkscape:current-layer="svg2" />
  <rect
     height="24"
     width="88"
     x="56.5"
     y="128.5"
     id="rect4"
     style="fill:#ffffff;stroke:#ffffff;stroke-width:1" />
  <rect
     height="24"
     width="88"
     x="56.5"
     y="128.5"
     id="rect6"
     style="fill:none;stroke:#000000;stroke-width:1" />
  <text
     font-size="12"
     x="62.5"
     y="141.5"
     id="text8"
     style="font-size:12px;font-family:Dialog">MainWindow</text>
  <rect
     height="24"
     width="88"
     x="56.5"
     y="200.5"
     id="rect10"
     style="fill:#ffffff;stroke:#ffffff;stroke-width:1" />
  <rect
     height="24"
     width="88"
     x="56.5"
     y="200.5"
     id="rect12"
     style="fill:none;stroke:#000000;stroke-width:1" />
  <text
     font-size="12"
     x="72.5"
     y="213.5"
     id="text14"
     style="font-size:12px;font-family:Dialog">glDisplay</text>
  <rect
     height="24"
     width="88"
     x="56.5"
     y="0.5"
     id="rect16"
     style="fill:#ffffff;stroke:#ffffff;stroke-width:1" />
  <rect
     height="24"
     width="88"
     x="56.5"
     y="0.5"
     id="rect18"
     style="fill:none;stroke:#000000;stroke-width:1" />
  <text
     font-size="12"
     font-style="italic"
     x="70.5"
     y="13.5"
     id="text20"
     style="font-size:12px;font-style:italic;font-family:Dialog">Drawable</text>
  <rect
     height="24"
     width="88"
     x="0.5"
     y="64.5"
     id="rect22"
     style="fill:#ffffff;stroke:#ffffff;stroke-width:1" />
  <rect
     height="24"
     width="88"
     x="0.5"
     y="64.5"
     id="rect24"
     style="fill:none;stroke:#000000;stroke-width:1" />
  <text
     font-size="12"
     x="31.5"
     y="77.5"
     id="text26"
     style="font-size:12px;font-family:Dialog">DTM</text>
  <rect
     height="24"
     width="88"
     x="120.5"
     y="64.5"
     id="rect28"
     style="fill:#ffffff;stroke:#ffffff;stroke-width:1" />
  <rect
     height="24"
     width="88"
     x="120.5"
     y="64.5"
     id="rect30"
     style="fill:none;stroke:#000000;stroke-width:1" />
  <text
     font-size="12"
     x="136.5"
     y="77.5"
     id="text32"
     style="font-size:12px;font-family:Dialog">FlowPath</text>
  <polyline
     points="120,78 120,37"
     id="polyline34"
     style="fill:none;stroke:#333399;stroke-width:1"
     transform="translate(-47.5,-13.5)" />
  <polygon
     points="120,37 127,49 113,49 "
     id="polygon36"
     style="fill:#ffffff;stroke:#ffffff;stroke-width:1"
     transform="translate(-47.5,-13.5)" />
  <polygon
     points="120,37 127,49 113,49 "
     id="polygon38"
     style="fill:none;stroke:#333399;stroke-width:1"
     transform="translate(-47.5,-13.5)" />
  <polyline
     points="184,78 184,37"
     id="polyline40"
     style="fill:none;stroke:#333399;stroke-width:1"
     transform="translate(-47.5,-13.5)" />
  <polygon
     points="184,37 191,49 177,49 "
     id="polygon42"
     style="fill:#ffffff;stroke:#ffffff;stroke-width:1"
     transform="translate(-47.5,-13.5)" />
  <polygon
     points="184,37 191,49 177,49 "
     id="polygon44"
     style="fill:none;stroke:#333399;stroke-width:1"
     transform="translate(-47.5,-13.5)" />
  <polyline
     points="152,214 152,165"
     id="polyline46"
     style="fill:none;stroke:#000000;stroke-width:1"
     transform="translate(-47.5,-13.5)" />
  <ellipse
     cx="151"
     cy="191"
     rx="0"
     ry="0"
     id="ellipse50"
     sodipodi:cx="151"
     sodipodi:cy="191"
     sodipodi:rx="0"
     sodipodi:ry="0"
     style="fill:#ffffff;stroke:#ffffff;stroke-width:1"
     transform="translate(-47.5,-13.5)" />
  <polyline
     points="184,142 184,101"
     id="polyline52"
     style="fill:none;stroke:#000000;stroke-width:1"
     transform="translate(-47.5,-13.5)" />
  <polygon
     points="189,132 184,142 179,132 184,122 "
     id="polygon54"
     style="fill:#000000;stroke:#000000;stroke-width:1"
     transform="translate(-47.5,-13.5)" />
  <polygon
     points="189,132 184,142 179,132 184,122 "
     id="polygon56"
     style="fill:none;stroke:#000000;stroke-width:1"
     transform="translate(-47.5,-13.5)" />
  <line
     x1="143.5"
     x2="136.5"
     y1="99.5"
     y2="87.5"
     id="line58"
     style="fill:#000000;stroke:#000000;stroke-width:1" />
  <line
     x1="129.5"
     x2="136.5"
     y1="99.5"
     y2="87.5"
     id="line60"
     style="fill:#000000;stroke:#000000;stroke-width:1" />
  <polyline
     points="120,142 120,101"
     id="polyline62"
     style="fill:none;stroke:#000000;stroke-width:1"
     transform="translate(-47.5,-13.5)" />
  <line
     x1="79.5"
     x2="72.5"
     y1="99.5"
     y2="87.5"
     id="line64"
     style="fill:#000000;stroke:#000000;stroke-width:1" />
  <line
     x1="65.5"
     x2="72.5"
     y1="99.5"
     y2="87.5"
     id="line66"
     style="fill:#000000;stroke:#000000;stroke-width:1" />
  <polyline
     points="120,214 120,101"
     id="polyline68"
     style="fill:none;stroke:#000000;stroke-width:1"
     transform="translate(-47.5,-13.5)" />
  <line
     x1="79.5"
     x2="72.5"
     y1="99.5"
     y2="87.5"
     id="line70"
     style="fill:#000000;stroke:#000000;stroke-width:1" />
  <line
     x1="65.5"
     x2="72.5"
     y1="99.5"
     y2="87.5"
     id="line72"
     style="fill:#000000;stroke:#000000;stroke-width:1" />
  <polyline
     points="184,214 184,101"
     id="polyline74"
     style="fill:none;stroke:#000000;stroke-width:1"
     transform="translate(-47.5,-13.5)" />
  <line
     x1="143.5"
     x2="136.5"
     y1="99.5"
     y2="87.5"
     id="line76"
     style="fill:#000000;stroke:#000000;stroke-width:1" />
  <line
     x1="129.5"
     x2="136.5"
     y1="99.5"
     y2="87.5"
     id="line78"
     style="fill:#000000;stroke:#000000;stroke-width:1" />
</svg>
